<?xml version="1.0" encoding="utf-8"?>
<!-- Generator: Adobe Illustrator 28.0.0, SVG Export Plug-In . SVG Version: 6.00 Build 0)  -->
<svg version="1.1" id="Layer_1" xmlns="http://www.w3.org/2000/svg" xmlns:xlink="http://www.w3.org/1999/xlink" x="0px" y="0px"
	 viewBox="0 0 37.65 60.4" style="enable-background:new 0 0 37.65 60.4;" xml:space="preserve">
<style type="text/css">
	.st0{display:none;fill:#151B1E;}
	.st1{fill:#6CE8BB;}
	.st2{fill:#70E9BD;}
	.st3{fill:#74E9BE;}
	.st4{fill:#78EAC0;}
	.st5{fill:#7CEAC2;}
	.st6{fill:#80EBC3;}
	.st7{fill:#84EBC5;}
	.st8{fill:#88ECC6;}
	.st9{fill:#8CECC8;}
	.st10{fill:#91EDCA;}
	.st11{fill:#95EDCB;}
	.st12{fill:#99EECD;}
	.st13{fill:#9DEECF;}
	.st14{fill:#A1EFD0;}
	.st15{fill:#A5EFD2;}
	.st16{fill:#A9F0D4;}
	.st17{fill:#ADF0D5;}
	.st18{fill:#B1F1D7;}
	.st19{fill:#B5F1D8;}
	.st20{fill:#B9F1DA;}
	.st21{fill:#BDF2DC;}
	.st22{fill:#C1F2DD;}
	.st23{fill:#C5F3DF;}
	.st24{fill:#C9F3E1;}
	.st25{fill:#CDF4E2;}
	.st26{fill:#D1F4E4;}
	.st27{fill:#D5F5E6;}
	.st28{fill:#D9F5E7;}
	.st29{fill:#DEF6E9;}
	.st30{fill:#E2F6EB;}
	.st31{fill:#E6F7EC;}
	.st32{fill:#EAF7EE;}
	.st33{fill:#EEF8EF;}
	.st34{fill:#F2F8F1;}
	.st35{fill:#F6F9F3;}
	.st36{fill:#FAF9F4;}
	.st37{fill:#FEFAF6;}
	.st38{fill:#151B1E;}
</style>
<rect x="-159.61" y="0.06" class="st0" width="100" height="100"/>
<g>
	<g>
		<path class="st1" d="M-222.75,134.14c3.15,0,5.29-0.31,6.41-0.94c1.12-0.62,1.82-2.17,2.12-4.63c0.3-2.46,0.44-7.21,0.44-14.24
			c0-7.09-0.15-11.86-0.44-14.29c-0.29-2.43-0.98-3.96-2.07-4.58c-1.08-0.62-3.24-0.94-6.45-0.94h-3.84v39.61H-222.75z
			 M-244.63,80.43h21.88c8.8,0,15.06,0.97,18.77,2.91c3.71,1.94,6.01,5.04,6.9,9.31c0.89,4.27,1.33,11.5,1.33,21.68
			c0,10.18-0.44,17.41-1.33,21.68s-3.19,7.38-6.9,9.31c-3.71,1.94-9.97,2.91-18.77,2.91h-21.88V80.43z"/>
	</g>
	<path class="st2" d="M-222.97,134.28c3.15,0,5.29-0.31,6.41-0.94c1.12-0.62,1.82-2.17,2.12-4.63c0.3-2.46,0.44-7.21,0.44-14.24
		c0-7.09-0.15-11.86-0.44-14.29c-0.29-2.43-0.98-3.96-2.07-4.58c-1.08-0.62-3.24-0.94-6.45-0.94h-3.84v39.61H-222.97z
		 M-244.84,80.57h21.88c8.8,0,15.06,0.97,18.77,2.91c3.71,1.94,6.01,5.04,6.9,9.31c0.89,4.27,1.33,11.5,1.33,21.68
		c0,10.18-0.44,17.41-1.33,21.68s-3.19,7.38-6.9,9.31c-3.71,1.94-9.97,2.91-18.77,2.91h-21.88V80.57z"/>
	<path class="st3" d="M-223.18,134.42c3.15,0,5.29-0.31,6.41-0.94c1.12-0.62,1.82-2.17,2.12-4.63c0.3-2.46,0.44-7.21,0.44-14.24
		c0-7.09-0.15-11.86-0.44-14.29c-0.29-2.43-0.98-3.96-2.07-4.58c-1.08-0.62-3.24-0.94-6.45-0.94h-3.84v39.61H-223.18z
		 M-245.06,80.71h21.88c8.8,0,15.06,0.97,18.77,2.91c3.71,1.94,6.01,5.04,6.9,9.31c0.89,4.27,1.33,11.5,1.33,21.68
		c0,10.18-0.44,17.41-1.33,21.68s-3.19,7.38-6.9,9.31c-3.71,1.94-9.97,2.91-18.77,2.91h-21.88V80.71z"/>
	<path class="st4" d="M-223.39,134.55c3.15,0,5.29-0.31,6.41-0.94c1.12-0.62,1.82-2.17,2.12-4.63c0.3-2.46,0.44-7.21,0.44-14.24
		c0-7.09-0.15-11.86-0.44-14.29c-0.29-2.43-0.98-3.96-2.07-4.58c-1.08-0.62-3.24-0.94-6.45-0.94h-3.84v39.61H-223.39z
		 M-245.27,80.85h21.88c8.8,0,15.06,0.97,18.77,2.91c3.71,1.94,6.01,5.04,6.9,9.31c0.89,4.27,1.33,11.5,1.33,21.68
		c0,10.18-0.44,17.41-1.33,21.68s-3.19,7.38-6.9,9.31c-3.71,1.94-9.97,2.91-18.77,2.91h-21.88V80.85z"/>
	<path class="st5" d="M-223.61,134.69c3.15,0,5.29-0.31,6.41-0.94c1.12-0.62,1.82-2.17,2.12-4.63c0.3-2.46,0.44-7.21,0.44-14.24
		c0-7.09-0.15-11.86-0.44-14.29c-0.29-2.43-0.98-3.96-2.07-4.58c-1.08-0.62-3.24-0.94-6.45-0.94h-3.84v39.61H-223.61z
		 M-245.48,80.99h21.88c8.8,0,15.06,0.97,18.77,2.91c3.71,1.94,6.01,5.04,6.9,9.31c0.89,4.27,1.33,11.5,1.33,21.68
		c0,10.18-0.44,17.41-1.33,21.68s-3.19,7.38-6.9,9.31c-3.71,1.94-9.97,2.91-18.77,2.91h-21.88V80.99z"/>
	<path class="st6" d="M-223.82,134.83c3.15,0,5.29-0.31,6.41-0.94c1.12-0.62,1.82-2.17,2.12-4.63c0.3-2.46,0.44-7.21,0.44-14.24
		c0-7.09-0.15-11.86-0.44-14.29c-0.29-2.43-0.98-3.96-2.07-4.58c-1.08-0.62-3.24-0.94-6.45-0.94h-3.84v39.61H-223.82z M-245.7,81.13
		h21.88c8.8,0,15.06,0.97,18.77,2.91c3.71,1.94,6.01,5.04,6.9,9.31c0.89,4.27,1.33,11.5,1.33,21.68c0,10.18-0.44,17.41-1.33,21.68
		s-3.19,7.38-6.9,9.31c-3.71,1.94-9.97,2.91-18.77,2.91h-21.88V81.13z"/>
	<path class="st7" d="M-224.04,134.97c3.15,0,5.29-0.31,6.41-0.94c1.12-0.62,1.82-2.17,2.12-4.63c0.3-2.46,0.44-7.21,0.44-14.24
		c0-7.09-0.15-11.86-0.44-14.29c-0.29-2.43-0.98-3.96-2.07-4.58c-1.08-0.62-3.24-0.94-6.45-0.94h-3.84v39.61H-224.04z
		 M-245.91,81.27h21.88c8.8,0,15.06,0.97,18.77,2.91c3.71,1.94,6.01,5.04,6.9,9.31c0.89,4.27,1.33,11.5,1.33,21.68
		c0,10.18-0.44,17.41-1.33,21.68s-3.19,7.38-6.9,9.31c-3.71,1.94-9.97,2.91-18.77,2.91h-21.88V81.27z"/>
	<path class="st8" d="M-224.25,135.11c3.15,0,5.29-0.31,6.41-0.94c1.12-0.62,1.82-2.17,2.12-4.63c0.3-2.46,0.44-7.21,0.44-14.24
		c0-7.09-0.15-11.86-0.44-14.29c-0.29-2.43-0.98-3.96-2.07-4.58c-1.08-0.62-3.24-0.94-6.45-0.94h-3.84v39.61H-224.25z
		 M-246.13,81.41h21.88c8.8,0,15.06,0.97,18.77,2.91c3.71,1.94,6.01,5.04,6.9,9.31c0.89,4.27,1.33,11.5,1.33,21.68
		c0,10.18-0.44,17.41-1.33,21.68s-3.19,7.38-6.9,9.31c-3.71,1.94-9.97,2.91-18.77,2.91h-21.88V81.41z"/>
	<path class="st9" d="M-224.46,135.25c3.15,0,5.29-0.31,6.41-0.94c1.12-0.62,1.82-2.17,2.12-4.63c0.3-2.46,0.44-7.21,0.44-14.24
		c0-7.09-0.15-11.86-0.44-14.29c-0.29-2.43-0.98-3.96-2.07-4.58c-1.08-0.62-3.24-0.94-6.45-0.94h-3.84v39.61H-224.46z
		 M-246.34,81.54h21.88c8.8,0,15.06,0.97,18.77,2.91c3.71,1.94,6.01,5.04,6.9,9.31c0.89,4.27,1.33,11.5,1.33,21.68
		c0,10.18-0.44,17.41-1.33,21.68s-3.19,7.38-6.9,9.31c-3.71,1.94-9.97,2.91-18.77,2.91h-21.88V81.54z"/>
	<path class="st10" d="M-224.68,135.39c3.15,0,5.29-0.31,6.41-0.94c1.12-0.62,1.82-2.17,2.12-4.63c0.3-2.46,0.44-7.21,0.44-14.24
		c0-7.09-0.15-11.86-0.44-14.29c-0.29-2.43-0.98-3.96-2.07-4.58c-1.08-0.62-3.24-0.94-6.45-0.94h-3.84v39.61H-224.68z
		 M-246.55,81.68h21.88c8.8,0,15.06,0.97,18.77,2.91c3.71,1.94,6.01,5.04,6.9,9.31c0.89,4.27,1.33,11.5,1.33,21.68
		c0,10.18-0.44,17.41-1.33,21.68s-3.19,7.38-6.9,9.31c-3.71,1.94-9.97,2.91-18.77,2.91h-21.88V81.68z"/>
	<path class="st11" d="M-224.89,135.53c3.15,0,5.29-0.31,6.41-0.94c1.12-0.62,1.82-2.17,2.12-4.63c0.3-2.46,0.44-7.21,0.44-14.24
		c0-7.09-0.15-11.86-0.44-14.29c-0.29-2.43-0.98-3.96-2.07-4.58c-1.08-0.62-3.24-0.94-6.45-0.94h-3.84v39.61H-224.89z
		 M-246.77,81.82h21.88c8.8,0,15.06,0.97,18.77,2.91c3.71,1.94,6.01,5.04,6.9,9.31c0.89,4.27,1.33,11.5,1.33,21.68
		c0,10.18-0.44,17.41-1.33,21.68s-3.19,7.38-6.9,9.31c-3.71,1.94-9.97,2.91-18.77,2.91h-21.88V81.82z"/>
	<path class="st12" d="M-225.11,135.66c3.15,0,5.29-0.31,6.41-0.94c1.12-0.62,1.82-2.17,2.12-4.63c0.3-2.46,0.44-7.21,0.44-14.24
		c0-7.09-0.15-11.86-0.44-14.29c-0.29-2.43-0.98-3.96-2.07-4.58c-1.08-0.62-3.24-0.94-6.45-0.94h-3.84v39.61H-225.11z
		 M-246.98,81.96h21.88c8.8,0,15.06,0.97,18.77,2.91c3.71,1.94,6.01,5.04,6.9,9.31c0.89,4.27,1.33,11.5,1.33,21.68
		c0,10.18-0.44,17.41-1.33,21.68s-3.19,7.38-6.9,9.31c-3.71,1.94-9.97,2.91-18.77,2.91h-21.88V81.96z"/>
	<path class="st13" d="M-225.32,135.8c3.15,0,5.29-0.31,6.41-0.94c1.12-0.62,1.82-2.17,2.12-4.63c0.3-2.46,0.44-7.21,0.44-14.24
		c0-7.09-0.15-11.86-0.44-14.29c-0.29-2.43-0.98-3.96-2.07-4.58c-1.08-0.62-3.24-0.94-6.45-0.94h-3.84v39.61H-225.32z M-247.2,82.1
		h21.88c8.8,0,15.06,0.97,18.77,2.91c3.71,1.94,6.01,5.04,6.9,9.31c0.89,4.27,1.33,11.5,1.33,21.68c0,10.18-0.44,17.41-1.33,21.68
		s-3.19,7.38-6.9,9.31c-3.71,1.94-9.97,2.91-18.77,2.91h-21.88V82.1z"/>
	<path class="st14" d="M-225.53,135.94c3.15,0,5.29-0.31,6.41-0.94c1.12-0.62,1.82-2.17,2.12-4.63c0.3-2.46,0.44-7.21,0.44-14.24
		c0-7.09-0.15-11.86-0.44-14.29c-0.29-2.43-0.98-3.96-2.07-4.58c-1.08-0.62-3.24-0.94-6.45-0.94h-3.84v39.61H-225.53z
		 M-247.41,82.24h21.88c8.8,0,15.06,0.97,18.77,2.91c3.71,1.94,6.01,5.04,6.9,9.31c0.89,4.27,1.33,11.5,1.33,21.68
		c0,10.18-0.44,17.41-1.33,21.68s-3.19,7.38-6.9,9.31c-3.71,1.94-9.97,2.91-18.77,2.91h-21.88V82.24z"/>
	<path class="st15" d="M-225.75,136.08c3.15,0,5.29-0.31,6.41-0.94c1.12-0.62,1.82-2.17,2.12-4.63c0.3-2.46,0.44-7.21,0.44-14.24
		c0-7.09-0.15-11.86-0.44-14.29c-0.29-2.43-0.98-3.96-2.07-4.58c-1.08-0.62-3.24-0.94-6.45-0.94h-3.84v39.61H-225.75z
		 M-247.62,82.38h21.88c8.8,0,15.06,0.97,18.77,2.91c3.71,1.94,6.01,5.04,6.9,9.31c0.89,4.27,1.33,11.5,1.33,21.68
		c0,10.18-0.44,17.41-1.33,21.68s-3.19,7.38-6.9,9.31c-3.71,1.94-9.97,2.91-18.77,2.91h-21.88V82.38z"/>
	<path class="st16" d="M-225.96,136.22c3.15,0,5.29-0.31,6.41-0.94c1.12-0.62,1.82-2.17,2.12-4.63c0.3-2.46,0.44-7.21,0.44-14.24
		c0-7.09-0.15-11.86-0.44-14.29c-0.29-2.43-0.98-3.96-2.07-4.58c-1.08-0.62-3.24-0.94-6.45-0.94h-3.84v39.61H-225.96z
		 M-247.84,82.52h21.88c8.8,0,15.06,0.97,18.77,2.91c3.71,1.94,6.01,5.04,6.9,9.31c0.89,4.27,1.33,11.5,1.33,21.68
		c0,10.18-0.44,17.41-1.33,21.68s-3.19,7.38-6.9,9.31c-3.71,1.94-9.97,2.91-18.77,2.91h-21.88V82.52z"/>
	<path class="st17" d="M-226.18,136.36c3.15,0,5.29-0.31,6.41-0.94c1.12-0.62,1.82-2.17,2.12-4.63c0.3-2.46,0.44-7.21,0.44-14.24
		c0-7.09-0.15-11.86-0.44-14.29c-0.29-2.43-0.98-3.96-2.07-4.58c-1.08-0.62-3.24-0.94-6.45-0.94h-3.84v39.61H-226.18z
		 M-248.05,82.65h21.88c8.8,0,15.06,0.97,18.77,2.91c3.71,1.94,6.01,5.04,6.9,9.31c0.89,4.27,1.33,11.5,1.33,21.68
		c0,10.18-0.44,17.41-1.33,21.68s-3.19,7.38-6.9,9.31c-3.71,1.94-9.97,2.91-18.77,2.91h-21.88V82.65z"/>
	<path class="st18" d="M-226.39,136.5c3.15,0,5.29-0.31,6.41-0.94c1.12-0.62,1.82-2.17,2.12-4.63c0.3-2.46,0.44-7.21,0.44-14.24
		c0-7.09-0.15-11.86-0.44-14.29c-0.29-2.43-0.98-3.96-2.07-4.58c-1.08-0.62-3.24-0.94-6.45-0.94h-3.84v39.61H-226.39z
		 M-248.27,82.79h21.88c8.8,0,15.06,0.97,18.77,2.91c3.71,1.94,6.01,5.04,6.9,9.31c0.89,4.27,1.33,11.5,1.33,21.68
		c0,10.18-0.44,17.41-1.33,21.68s-3.19,7.38-6.9,9.31c-3.71,1.94-9.97,2.91-18.77,2.91h-21.88V82.79z"/>
	<path class="st19" d="M-226.6,136.64c3.15,0,5.29-0.31,6.41-0.94c1.12-0.62,1.82-2.17,2.12-4.63c0.3-2.46,0.44-7.21,0.44-14.24
		c0-7.09-0.15-11.86-0.44-14.29c-0.29-2.43-0.98-3.96-2.07-4.58c-1.08-0.62-3.24-0.94-6.45-0.94h-3.84v39.61H-226.6z M-248.48,82.93
		h21.88c8.8,0,15.06,0.97,18.77,2.91c3.71,1.94,6.01,5.04,6.9,9.31c0.89,4.27,1.33,11.5,1.33,21.68c0,10.18-0.44,17.41-1.33,21.68
		s-3.19,7.38-6.9,9.31c-3.71,1.94-9.97,2.91-18.77,2.91h-21.88V82.93z"/>
	<path class="st20" d="M-226.82,136.77c3.15,0,5.29-0.31,6.41-0.94c1.12-0.62,1.82-2.17,2.12-4.63c0.3-2.46,0.44-7.21,0.44-14.24
		c0-7.09-0.15-11.86-0.44-14.29c-0.29-2.43-0.98-3.96-2.07-4.58c-1.08-0.62-3.24-0.94-6.45-0.94h-3.84v39.61H-226.82z
		 M-248.69,83.07h21.88c8.8,0,15.06,0.97,18.77,2.91c3.71,1.94,6.01,5.04,6.9,9.31c0.89,4.27,1.33,11.5,1.33,21.68
		c0,10.18-0.44,17.41-1.33,21.68s-3.19,7.38-6.9,9.31c-3.71,1.94-9.97,2.91-18.77,2.91h-21.88V83.07z"/>
	<path class="st21" d="M-227.03,136.91c3.15,0,5.29-0.31,6.41-0.94c1.12-0.62,1.82-2.17,2.12-4.63c0.3-2.46,0.44-7.21,0.44-14.24
		c0-7.09-0.15-11.86-0.44-14.29c-0.29-2.43-0.98-3.96-2.07-4.58c-1.08-0.62-3.24-0.94-6.45-0.94h-3.84v39.61H-227.03z
		 M-248.91,83.21h21.88c8.8,0,15.06,0.97,18.77,2.91c3.71,1.94,6.01,5.04,6.9,9.31c0.89,4.27,1.33,11.5,1.33,21.68
		c0,10.18-0.44,17.41-1.33,21.68s-3.19,7.38-6.9,9.31c-3.71,1.94-9.97,2.91-18.77,2.91h-21.88V83.21z"/>
	<path class="st22" d="M-227.25,137.05c3.15,0,5.29-0.31,6.41-0.94c1.12-0.62,1.82-2.17,2.12-4.63c0.3-2.46,0.44-7.21,0.44-14.24
		c0-7.09-0.15-11.86-0.44-14.29c-0.29-2.43-0.98-3.96-2.07-4.58c-1.08-0.62-3.24-0.94-6.45-0.94h-3.84v39.61H-227.25z
		 M-249.12,83.35h21.88c8.8,0,15.06,0.97,18.77,2.91c3.71,1.94,6.01,5.04,6.9,9.31c0.89,4.27,1.33,11.5,1.33,21.68
		c0,10.18-0.44,17.41-1.33,21.68s-3.19,7.38-6.9,9.31c-3.71,1.94-9.97,2.91-18.77,2.91h-21.88V83.35z"/>
	<path class="st23" d="M-227.46,137.19c3.15,0,5.29-0.31,6.41-0.94c1.12-0.62,1.82-2.17,2.12-4.63c0.3-2.46,0.44-7.21,0.44-14.24
		c0-7.09-0.15-11.86-0.44-14.29c-0.29-2.43-0.98-3.96-2.07-4.58c-1.08-0.62-3.24-0.94-6.45-0.94h-3.84v39.61H-227.46z
		 M-249.34,83.49h21.88c8.8,0,15.06,0.97,18.77,2.91c3.71,1.94,6.01,5.04,6.9,9.31c0.89,4.27,1.33,11.5,1.33,21.68
		c0,10.18-0.44,17.41-1.33,21.68s-3.19,7.38-6.9,9.31c-3.71,1.94-9.97,2.91-18.77,2.91h-21.88V83.49z"/>
	<path class="st24" d="M-227.67,137.33c3.15,0,5.29-0.31,6.41-0.94c1.12-0.62,1.82-2.17,2.12-4.63c0.3-2.46,0.44-7.21,0.44-14.24
		c0-7.09-0.15-11.86-0.44-14.29c-0.29-2.43-0.98-3.96-2.07-4.58c-1.08-0.62-3.24-0.94-6.45-0.94h-3.84v39.61H-227.67z
		 M-249.55,83.63h21.88c8.8,0,15.06,0.97,18.77,2.91c3.71,1.94,6.01,5.04,6.9,9.31c0.89,4.27,1.33,11.5,1.33,21.68
		c0,10.18-0.44,17.41-1.33,21.68s-3.19,7.38-6.9,9.31c-3.71,1.94-9.97,2.91-18.77,2.91h-21.88V83.63z"/>
	<path class="st25" d="M-227.89,137.47c3.15,0,5.29-0.31,6.41-0.94c1.12-0.62,1.82-2.17,2.12-4.63c0.3-2.46,0.44-7.21,0.44-14.24
		c0-7.09-0.15-11.86-0.44-14.29c-0.29-2.43-0.98-3.96-2.07-4.58c-1.08-0.62-3.24-0.94-6.45-0.94h-3.84v39.61H-227.89z
		 M-249.76,83.76h21.88c8.8,0,15.06,0.97,18.77,2.91c3.71,1.94,6.01,5.04,6.9,9.31c0.89,4.27,1.33,11.5,1.33,21.68
		c0,10.18-0.44,17.41-1.33,21.68s-3.19,7.38-6.9,9.31c-3.71,1.94-9.97,2.91-18.77,2.91h-21.88V83.76z"/>
	<path class="st26" d="M-228.1,137.61c3.15,0,5.29-0.31,6.41-0.94c1.12-0.62,1.82-2.17,2.12-4.63c0.3-2.46,0.44-7.21,0.44-14.24
		c0-7.09-0.15-11.86-0.44-14.29c-0.29-2.43-0.98-3.96-2.07-4.58c-1.08-0.62-3.24-0.94-6.45-0.94h-3.84v39.61H-228.1z M-249.98,83.9
		h21.88c8.8,0,15.06,0.97,18.77,2.91c3.71,1.94,6.01,5.04,6.9,9.31c0.89,4.27,1.33,11.5,1.33,21.68c0,10.18-0.44,17.41-1.33,21.68
		s-3.19,7.38-6.9,9.31c-3.71,1.94-9.97,2.91-18.77,2.91h-21.88V83.9z"/>
	<path class="st27" d="M-228.32,137.75c3.15,0,5.29-0.31,6.41-0.94c1.12-0.62,1.82-2.17,2.12-4.63c0.3-2.46,0.44-7.21,0.44-14.24
		c0-7.09-0.15-11.86-0.44-14.29c-0.29-2.43-0.98-3.96-2.07-4.58c-1.08-0.62-3.24-0.94-6.45-0.94h-3.84v39.61H-228.32z
		 M-250.19,84.04h21.88c8.8,0,15.06,0.97,18.77,2.91c3.71,1.94,6.01,5.04,6.9,9.31c0.89,4.27,1.33,11.5,1.33,21.68
		c0,10.18-0.44,17.41-1.33,21.68s-3.19,7.38-6.9,9.31c-3.71,1.94-9.97,2.91-18.77,2.91h-21.88V84.04z"/>
	<path class="st28" d="M-228.53,137.88c3.15,0,5.29-0.31,6.41-0.94c1.12-0.62,1.82-2.17,2.12-4.63c0.3-2.46,0.44-7.21,0.44-14.24
		c0-7.09-0.15-11.86-0.44-14.29c-0.29-2.43-0.98-3.96-2.07-4.58c-1.08-0.62-3.24-0.94-6.45-0.94h-3.84v39.61H-228.53z M-250.4,84.18
		h21.88c8.8,0,15.06,0.97,18.77,2.91c3.71,1.94,6.01,5.04,6.9,9.31c0.89,4.27,1.33,11.5,1.33,21.68c0,10.18-0.44,17.41-1.33,21.68
		s-3.19,7.38-6.9,9.31c-3.71,1.94-9.97,2.91-18.77,2.91h-21.88V84.18z"/>
	<path class="st29" d="M-228.74,138.02c3.15,0,5.29-0.31,6.41-0.94c1.12-0.62,1.82-2.17,2.12-4.63c0.3-2.46,0.44-7.21,0.44-14.24
		c0-7.09-0.15-11.86-0.44-14.29c-0.29-2.43-0.98-3.96-2.07-4.58c-1.08-0.62-3.24-0.94-6.45-0.94h-3.84v39.61H-228.74z
		 M-250.62,84.32h21.88c8.8,0,15.06,0.97,18.77,2.91c3.71,1.94,6.01,5.04,6.9,9.31c0.89,4.27,1.33,11.5,1.33,21.68
		c0,10.18-0.44,17.41-1.33,21.68s-3.19,7.38-6.9,9.31c-3.71,1.94-9.97,2.91-18.77,2.91h-21.88V84.32z"/>
	<path class="st30" d="M-228.96,138.16c3.15,0,5.29-0.31,6.41-0.94c1.12-0.62,1.82-2.17,2.12-4.63c0.3-2.46,0.44-7.21,0.44-14.24
		c0-7.09-0.15-11.86-0.44-14.29c-0.29-2.43-0.98-3.96-2.07-4.58c-1.08-0.62-3.24-0.94-6.45-0.94h-3.84v39.61H-228.96z
		 M-250.83,84.46h21.88c8.8,0,15.06,0.97,18.77,2.91c3.71,1.94,6.01,5.04,6.9,9.31c0.89,4.27,1.33,11.5,1.33,21.68
		c0,10.18-0.44,17.41-1.33,21.68s-3.19,7.38-6.9,9.31c-3.71,1.94-9.97,2.91-18.77,2.91h-21.88V84.46z"/>
	<path class="st31" d="M-229.17,138.3c3.15,0,5.29-0.31,6.41-0.94c1.12-0.62,1.82-2.17,2.12-4.63c0.3-2.46,0.44-7.21,0.44-14.24
		c0-7.09-0.15-11.86-0.44-14.29c-0.29-2.43-0.98-3.96-2.07-4.58c-1.08-0.62-3.24-0.94-6.45-0.94h-3.84v39.61H-229.17z M-251.05,84.6
		h21.88c8.8,0,15.06,0.97,18.77,2.91c3.71,1.94,6.01,5.04,6.9,9.31c0.89,4.27,1.33,11.5,1.33,21.68c0,10.18-0.44,17.41-1.33,21.68
		s-3.19,7.38-6.9,9.31c-3.71,1.94-9.97,2.91-18.77,2.91h-21.88V84.6z"/>
	<path class="st32" d="M-229.38,138.44c3.15,0,5.29-0.31,6.41-0.94c1.12-0.62,1.82-2.17,2.12-4.63c0.3-2.46,0.44-7.21,0.44-14.24
		c0-7.09-0.15-11.86-0.44-14.29c-0.29-2.43-0.98-3.96-2.07-4.58c-1.08-0.62-3.24-0.94-6.45-0.94h-3.84v39.61H-229.38z
		 M-251.26,84.74h21.88c8.8,0,15.06,0.97,18.77,2.91c3.71,1.94,6.01,5.04,6.9,9.31c0.89,4.27,1.33,11.5,1.33,21.68
		c0,10.18-0.44,17.41-1.33,21.68s-3.19,7.38-6.9,9.31c-3.71,1.94-9.97,2.91-18.77,2.91h-21.88V84.74z"/>
	<path class="st33" d="M-229.6,138.58c3.15,0,5.29-0.31,6.41-0.94c1.12-0.62,1.82-2.17,2.12-4.63c0.3-2.46,0.44-7.21,0.44-14.24
		c0-7.09-0.15-11.86-0.44-14.29c-0.29-2.43-0.98-3.96-2.07-4.58c-1.08-0.62-3.24-0.94-6.45-0.94h-3.84v39.61H-229.6z M-251.47,84.87
		h21.88c8.8,0,15.06,0.97,18.77,2.91c3.71,1.94,6.01,5.04,6.9,9.31c0.89,4.27,1.33,11.5,1.33,21.68c0,10.18-0.44,17.41-1.33,21.68
		s-3.19,7.38-6.9,9.31c-3.71,1.94-9.97,2.91-18.77,2.91h-21.88V84.87z"/>
	<path class="st34" d="M-229.81,138.72c3.15,0,5.29-0.31,6.41-0.94c1.12-0.62,1.82-2.17,2.12-4.63c0.3-2.46,0.44-7.21,0.44-14.24
		c0-7.09-0.15-11.86-0.44-14.29c-0.29-2.43-0.98-3.96-2.07-4.58c-1.08-0.62-3.24-0.94-6.45-0.94h-3.84v39.61H-229.81z
		 M-251.69,85.01h21.88c8.8,0,15.06,0.97,18.77,2.91c3.71,1.94,6.01,5.04,6.9,9.31c0.89,4.27,1.33,11.5,1.33,21.68
		c0,10.18-0.44,17.41-1.33,21.68s-3.19,7.38-6.9,9.31c-3.71,1.94-9.97,2.91-18.77,2.91h-21.88V85.01z"/>
	<path class="st35" d="M-230.03,138.86c3.15,0,5.29-0.31,6.41-0.94c1.12-0.62,1.82-2.17,2.12-4.63c0.3-2.46,0.44-7.21,0.44-14.24
		c0-7.09-0.15-11.86-0.44-14.29c-0.29-2.43-0.98-3.96-2.07-4.58c-1.08-0.62-3.24-0.94-6.45-0.94h-3.84v39.61H-230.03z M-251.9,85.15
		h21.88c8.8,0,15.06,0.97,18.77,2.91c3.71,1.94,6.01,5.04,6.9,9.31c0.89,4.27,1.33,11.5,1.33,21.68c0,10.18-0.44,17.41-1.33,21.68
		s-3.19,7.38-6.9,9.31c-3.71,1.94-9.97,2.91-18.77,2.91h-21.88V85.15z"/>
	<path class="st36" d="M-230.24,138.99c3.15,0,5.29-0.31,6.41-0.94c1.12-0.62,1.82-2.17,2.12-4.63c0.3-2.46,0.44-7.21,0.44-14.24
		c0-7.09-0.15-11.86-0.44-14.29c-0.29-2.43-0.98-3.96-2.07-4.58c-1.08-0.62-3.24-0.94-6.45-0.94h-3.84v39.61H-230.24z
		 M-252.12,85.29h21.88c8.8,0,15.06,0.97,18.77,2.91c3.71,1.94,6.01,5.04,6.9,9.31c0.89,4.27,1.33,11.5,1.33,21.68
		c0,10.18-0.44,17.41-1.33,21.68s-3.19,7.38-6.9,9.31c-3.71,1.94-9.97,2.91-18.77,2.91h-21.88V85.29z"/>
	<g>
		<path class="st37" d="M-230.45,139.13c3.15,0,5.29-0.31,6.41-0.94c1.12-0.62,1.82-2.17,2.12-4.63c0.3-2.46,0.44-7.21,0.44-14.24
			c0-7.09-0.15-11.86-0.44-14.29c-0.29-2.43-0.98-3.96-2.07-4.58c-1.08-0.62-3.24-0.94-6.45-0.94h-3.84v39.61H-230.45z
			 M-252.33,85.43h21.88c8.8,0,15.06,0.97,18.77,2.91c3.71,1.94,6.01,5.04,6.9,9.31c0.89,4.27,1.33,11.5,1.33,21.68
			c0,10.18-0.44,17.41-1.33,21.68s-3.19,7.38-6.9,9.31c-3.71,1.94-9.97,2.91-18.77,2.91h-21.88V85.43z"/>
	</g>
</g>
<text transform="matrix(1 0 0 1 -248.039 51.9939)" style="font-family:'SairaSemiCondensed-ExtraBold'; font-size:98.5402px;">D</text>
<g>
	<g>
		<path d="M-303.78,51.99V-6.24h21.68c2.82,0,5.14,0.41,6.95,1.23c1.8,0.82,3.15,2,4.04,3.55c0.89,1.54,1.33,3.4,1.33,5.57v35.47
			c0,3.15-0.58,5.63-1.72,7.44c-1.15,1.81-2.79,3.09-4.93,3.84c-2.14,0.76-4.68,1.13-7.64,1.13H-303.78z M-289.49,45h3.15
			c0.85,0,1.54-0.3,2.07-0.89c0.53-0.59,0.79-1.68,0.79-3.25V5.58c0-1.58-0.26-2.68-0.79-3.3c-0.53-0.62-1.22-0.94-2.07-0.94h-3.15
			V45z"/>
	</g>
</g>
<g>
	<g>
		<path class="st1" d="M3.43,59.2c0-0.35,0,0.45,0-1.02c0-0.15,0-0.23,0-0.6c0,1.51,0-0.46,0-0.78c0-0.72,0-0.93,0-1.46
			c0-0.52,0-0.47,0-1.03c0-0.31,0-0.58,0-0.8c0-0.48,0-0.82,0-1.17c0.04,0.21-0.26-0.6-0.12-0.58c-0.01,0.08-0.01-0.88,0.12-0.72
			c0.21-0.61-0.08-0.5,0-1.1c0.13-0.62-0.35-0.7,0-0.83c-0.18,0.56,0.06,0.43,0-0.59c0.36-0.78,0.02-1.8,0-0.58
			c0.31-0.07,0.04-0.42,0-0.89c0.22,0.48-0.07-0.73,0,0.04c-0.19-0.14-0.2-1.13,0-1.16c-0.18-1.05-0.03-1.17-0.23-0.8
			c0.04,0.03,0.25,0.9,0.23-0.34c0.15-0.36,0.03-1.82,0-1.13c0.02,0.7-0.35-1.71,0-1.18c0.08,0.32,0.05,0.51,0,0.09
			c0.04,0.24,0.08-0.98,0-1.12c-0.19-1.26,0.13,1,0-0.54c-0.01,0.33-0.16,0.01,0-0.72c0.24,0.55,0.14-0.25,0,0.18
			c0.02-0.37,0.16-1.12,0-0.23c0.17-0.64,0.24-1.36,0.1-1.07c-0.03,0.22-0.13,0.28-0.1-0.02c-0.08-0.56,0.18-0.79,0-0.71
			c0,1,0.12,0.79,0,0.3c0.11,0.01,0.2-1.11,0-0.92c-0.22-0.29,0.21-0.72,0-0.84c-0.12,0.14-0.16-1.31,0-0.52
			c0.14-0.73,0-0.06,0-1.11c-0.05,0.28-0.12-0.21,0-0.33c-0.11-0.16,0.07-0.99,0-0.85c-0.1,1.07-0.09,0,0-0.15
			c-0.06-0.63,0.18,0.21,0-0.34c0.12,0.13,0.08-1.12,0-0.75c0.09-1.08-0.24-0.2,0-0.16c0.01-0.14,0.01-0.46,0.05-0.72
			c-0.07-0.13-0.07-0.44-0.05-0.7c0.05-0.64,0.01-0.91-0.07-0.87c-0.02,0.11-0.16,0.54,0.07,1.1c-0.04-1.9-0.11-0.01,0-0.55
			c-0.05-0.88,0.33,0.3,0-0.76c0-0.7,0.16,0.39,0,0.48c0.02-0.07,0.05,0.54,0-0.82c0.15,0.12,0.04-0.76,0-1.12
			c0.32,0.58,0.19,0.46,0,0c0.31,0.16,0.19-1.27,0-1.17c0.02,0.45,0.17-1.35,0-0.42c0.05-0.32,0.01-0.55-0.07-0.86
			c-0.06-0.25-0.03-0.14,0.07,0.66c-0.09,0.68,0,0.77,0,0.45c0.01-0.21-0.05-0.13,0-1.1c0.08-0.01,0.1,0.14,0-0.8
			c-0.16,0.05,0.1-0.55,0-0.47c0.11-0.29-0.06,0.81,0-0.49c0.07,0.22-0.02,0.13,0,0.03c0.06-0.18,0.09-0.47,0-0.86
			c0.07,1.08-0.06,0.51-0.08,0.04c0.04-0.28,0.04-1.16,0.08-1.23c-0.14-0.19,0.38,0.04,0-0.39c0.04,0.14,0.08,0.43,0.06,0.22
			c0.01-0.03-0.03-0.72-0.06-1.1c0.22,0.86,0.22,1.41,0.14,1c-0.04-0.5-0.22-0.68-0.14-0.87c-0.19-0.41,0.17-1.48,0-1.01
			c0.11,0.47,0.08-0.36,0-0.34c0.12,0.15-0.23,0,0-0.35c-0.08,0.64-0.04-0.55,0-1.1c-0.04,0.52-0.15-0.73,0-0.92
			c0.07-0.08,0.11,0.57,0.07-0.04c0.06-0.74,0.2-1.73-0.07-0.91c-0.12-1.23,0.02-0.98,0.04-0.85c0.02,0.75-0.06-1.81-0.04-0.09
			c0.22-0.28-0.16-0.5,0,0.15c0.21-0.49-0.35,1.19,0,0.05c0.09-2.73,0.12-1.7,0-1.15c-0.39-0.8-0.66,0.13,0,0.44
			c-0.26-0.2,0.3-1.71,0-1.14c0.46-0.13,0.18,1.06,0,0.03c-0.21-0.74-0.48,0.98,0,0.36c-0.03-1.18,0.12-0.64,0-0.12
			c-0.41-0.36,0.16,0.29,0.04,0.83c0.21,0.53-0.22-0.94-0.04-0.6c0.14-0.43-0.18-0.98,0-0.48c-0.25,0.8-0.16,0.03,0-0.97
			c0.15-0.63-0.24-0.37,0-0.85c0.03,1.07,0.18,1.77,0,0.25c0.54-0.28,0.05,0.19,0-0.81c-0.26-0.81,0.24-0.25,0-0.52
			c0.15-1.1-0.18-0.89,0-0.14c0.31,0.08,0.06-0.37,0-0.81c0-0.03-0.27-0.7,0-0.21c0.18,0.84,0.06-0.46,0,0.51
			c0.02,0.1-0.08,0.11,0,0c0.03-1.54-0.18-0.84,0-1.02c-0.16-0.41-0.01-0.73,0,0.15c0.1,0.05-0.14-0.6,0-0.55
			c-0.15-0.48-0.16-1.9,0-1.06c-0.08-0.29,0,0.4,0-0.58c0.2-0.7-0.09-0.67,0-1.36c0.08-0.39,0.1,0.11,0,0.68
			c-0.05,0.2,0.04-0.96,0-1.09c-0.06,0.09,0.1-1.62,0-0.9c-0.04-0.06,0-0.79,0-0.8c0-0.25-0.02,0.07,0-0.91c0-0.61,0,0.5,0-1.13
			c0-0.15,0-0.64,0-0.97s0-0.52,0-0.04c0,0.57,0.44-0.01,1.2,0c0.19-1.31,0.4,0.64,0.63-0.12c0.23,0.44,0.47,0.36,0.73,0.12
			c0.26,0.19,0.54-0.78,0.83,0.1c0.29,0.46,0.59,0.23,0.91-0.1c0.32,0.22,0.64,0.2,0.98-0.2c0.34,0.12,0.69,0.42,1.04,0.1
			c0.36,0.13,0.72,0.43,1.09-0.03c0.37,0.77,0.74,0.11,1.12,0.13c0.38,0.54,0.76-0.59,1.15-0.02c0.39,0.21,0.77-0.32,1.16,0.02
			c0.39-0.65,0.77-0.42,1.16-0.04c0.39-0.1,0.77-0.67,1.15,0.05c0.38,0.24,0.75-0.37,1.12-0.19c0.18,0.08,0.37,0.35,0.55,0.48
			c0.18,0.13,0.36,0.14,0.54-0.29c0.36,0.14,0.7-0.37,1.04-0.08c0.34-0.49,0.67,0.76,0.98,0.08c0.32,0.54,0.62,0.72,0.91,0.12
			c0.29,0.56,0.57-0.13,0.83-0.11c0.26-0.99,0.51-0.1,0.73-0.06c0.23-0.46,0.44,0.44,0.63,0.05c0.38-0.9,0.68-0.35,0.88,0.06
			c0.21-0.58,0.32-0.38,0.32-0.06c0.24-0.25,0.47-0.06,0.7,0.1c0.23-0.3,0.45,0.36,0.67-0.01c0.22-0.84,0.44,0.33,0.65-0.15
			c0.21,0.23,0.42-0.25,0.63,0.2c0.21,1.87,0.41,0.14,0.61,0.5c0.2,0.76,0.4-1.11,0.59-0.39c0.39-1.17,0.76,0.13,1.12,0.3
			c0.36-0.25,0.7-0.8,1.03,0.42c0.33-0.2,0.65-0.22,0.95,0.26c0.45,0.43,0.87,0.77,1.27,0.64c0.39-0.04,0.76-0.27,1.1,0.87
			c0.34,0.29,0.64,0.35,0.92,0.68c0.14-0.19,0.27,1.47,0.4,0.46c0.13,0.09,0.24,0.86,0.35,0.9c0.15,0.33,0.28,0.02,0.41,0.64
			c0.12-0.12,0.23-0.23,0.33,1.01c0.04,0.51,0.2,1.03,0.26,1.02c0.07-0.62,0.09,0.01,0.18,0.84c0-0.3-0.03,0.74,0.06,0.92
			c-0.03,0.64-0.11,0.97,0.05,0.2c-0.19,0.61-0.09,1.08,0.04,0.94c0.07,0.18-0.23,0.37,0,0.81c0.24,0.34-0.2-0.99,0-0.63
			c0.43,0.18,0.13-0.13,0,0.81c0.32-0.36,0.05-0.78,0,0.03c0.13-0.36,0.14,0.83,0,1.17c-0.16,0.21-0.01,1.19,0,0.64
			c-0.19,1.09-0.15-0.2,0,0.86c0.2,1.29-0.34,0.61,0,1.03c-0.15,0.05,0.08,1.22,0,0.66c-0.04,0.05,0.01,0.54,0,1.15
			c0-1.49-0.06-0.75,0,0.04c0.24,0.6-0.09,1.9,0,1.09c0.12-0.34,0.02-0.13,0,0.58c-0.03,0.36-0.07,0.85,0,0.69
			c0.02,0.12,0.09,0.51,0,1.13c0.12-0.24-0.39,0.6,0,1.14c-0.05,0.71-0.02,0.3,0,0.61c0.02,0.52,0.26-0.33,0,0.67
			c0,1.26-0.2-0.65,0,0.63c-0.01,1.08-0.21,0.41,0,0.63c0.19,0.36-0.16-0.28,0,0.46c-0.11,0.24-0.07,0.29,0,0.86
			c0.18-0.5,0-0.21,0,0.28c-0.06-0.55,0.09,0.43,0,1.04c-0.15-0.06,0.02,0.02,0,0.73c0.19-0.48,0.11-0.5,0,0.64
			c0.22,0.43,0.16,1.54,0,1.12c-0.21,0.74-0.13,1.05,0,0.99c0.31-0.77,0.02-0.02,0,0.95c0.08-0.23,0.14,0.23,0,0.48
			c0.13,0.84,0.18,0.55,0,0.85c0.27,0.41,0.06,1.24,0,0.7c-0.26,0.27-0.3-0.81-0.1,0.03c0.12-0.01-0.05,0.54,0.1,1.13
			c-0.05,1.16-0.12,1.44-0.04,1.16c0.14,0.51,0.11-0.6,0.04-0.09c-0.16-0.12,0.12,1.38-0.02,1.21c0.07-0.02-0.18,0.54,0.02-0.23
			c0.13,0.17-0.04,0.68,0,0.24c0.15,1.04-0.12-0.49,0,0.81c-0.09,0.89,0.21,0.36,0,1.19c-0.15-0.67-0.08,0.21,0,1.04
			c-0.37-0.48,0.07,2.21,0,0.61c0.05,0.48-0.07-0.61,0,0.62c0.02,1.77-0.18,1.05,0,0.89c-0.03,0.52-0.15,0.27,0,0.42
			c-0.21,0.68,0.07,0.43,0,1c0.16-0.05,0.21,1.89,0,1.17c0.14,0.8,0.1,0.9,0,0.76c-0.04,0.92-0.23,0.88,0,0.7
			c-0.1-0.11,0.08,0.19-0.01,0.79c0.05,0.83,0.22,0.22-0.04,0.73c-0.02,0.81-0.16,0.45-0.06,0.78c-0.29,0.58,0.08,1.01-0.08,0.62
			C37.01,49.82,36.9,51,36.99,51c0-0.46-0.31,1.29-0.34,1.18c-0.07-0.07-0.14,1.03-0.43,1.07c-0.31-0.21-0.59,1.29-0.53,0.96
			c-0.08-0.39-0.34,0.84-0.62,0.81c-0.32,0.35-0.4,0.7-0.7,0.82c-0.03-0.13-0.7,1.04-0.78,0.76c-0.41-0.04-0.49,1.05-0.86,0.53
			c-0.41,0.28-0.48-0.05-0.94,0.55c-0.24-0.18-0.47-0.71-0.5-0.27c-0.11,0.4-0.01,0.28-0.52,0.65c-0.2-0.48-0.4,0.62-0.54,0
			c-0.13,0.28-0.32,0.53-0.56,0.04c-0.16,0.37-0.27-0.04-0.58,0.47c-0.22,0.38-0.56,0.42-0.59,0.12c-0.45-0.06-0.41,0.33-0.61,0.35
			c-0.12,1.05-0.63-0.33-0.63-0.25c-0.2,0.54-0.5-0.43-0.64,0.27c-0.06-0.78-0.11,0.51-0.66,0c-0.17-0.28-0.53-0.73-0.68-0.43
			c-0.02,0.87-0.38,0.24-0.7-0.05c-0.1,0.58-0.36-0.02-0.71,0.08c-0.16,0.39-0.4,0.44-0.73,0.53c-0.03,0.26-0.16-0.17-0.39-0.57
			c-0.09-0.57-0.3-0.67-0.46-0.15c-0.29,0.36-0.33,0.72-0.61,0.72c-0.24,0.14-0.5,0.31-0.75,0.28c-0.27,0.04-0.56,0.04-0.87,0.06
			c-0.31,0-0.63-0.22-0.97-0.45c-0.34,0.2-0.69-0.41-1.06,0.11c-0.24,0.49-0.49,0-0.74-0.04c-0.25-0.25-0.51-0.2-0.77,0.01
			c-0.26-0.27-0.52,0.49-0.79,0.41c-0.27,0.27-0.53,0.39-0.81-0.49c-0.27,0.19-0.54,0.27-0.82-0.07c-0.27-0.25-0.55-0.69-0.82,0.18
			c-0.27,0.28-0.55,0.35-0.82,0.3c-0.27-0.05-0.54-0.2-0.82-0.35c-0.54,0.06-1.07,0.32-1.6-0.01c-0.52-0.66-1.03,0.36-1.51,0.07
			c-0.73,0.58-1.41,1.05-2.03-0.05c-0.62-0.08-1.16-0.37-1.62,0.05c-0.46,0.57-0.82-0.78-1.07,0.11C3.56,59.31,3.43,59.01,3.43,59.2
			z M17.71,52.2c0,0.38,0.2,0.54,0.49,0.17c0.3,0.31,0.69-0.78,1.08-0.17c0.39,1.6,0.79-0.27,1.08,0.23
			c0.3,0.43,0.49-0.54,0.49-0.23c0.43,1.8,0.81-0.22,1.16-0.22c0.34-0.56,0.65-0.4,0.91-0.66c0.13,0.18,0.25-0.38,0.34-0.41
			c0.1-0.92,0.18-0.55,0.25-0.84c0.07,1.06,0.11-1.3,0.15-0.79c0.03-0.81,0.05-1.1,0.05-1.2c0-0.94,0-0.49,0-0.69
			c0-0.58,0-1.27,0-0.82c0-0.36,0-0.65,0-1.1c0,0.08,0-1.07,0-0.43c0,0.51,0-1.03,0-0.97c0-0.65,0,0.02,0-0.73c0-0.44,0-0.63,0-0.77
			c0-0.04,0-0.56,0-0.8c0-0.06,0-0.7,0-0.64c0-0.56,0-0.76,0-0.93c0-0.26,0-0.6,0-0.86s0-0.44,0-0.41c0-0.7,0-0.87,0-1.19
			c0,0.09-0.23-1.51,0-0.92c0.12,0.24-0.12-0.49,0-1.11c-0.09-0.01,0.05-0.27,0-0.9c0.09-0.28,0.03,0.17,0-0.66
			c0.2,0.32,0.06,0.2,0-0.67c-0.1,0.47-0.17-0.91,0-0.88c-0.22-0.42-0.21-0.11,0-1.1c-0.02-0.19-0.07,0.03,0-1.07
			c-0.19-0.13,0.1,0.05,0-0.62c0.03-0.19,0.02,0.2,0-0.67c0.16-0.71,0.28-0.79,0-0.94c0,0.22-0.01,0.17,0-0.4
			c-0.03,0.55,0.16-0.65,0-1.14c-0.26,0.3,0.03-1.03,0-0.23c-0.16-0.7,0.03-1.01,0-1.22c-0.14-1.26-0.09-0.91,0-0.94
			c0.35-1.02,0.13-0.94,0-0.84c-0.09-0.04-0.11-0.14-0.14-0.76c0.01-0.63,0.13-0.39,0.14-0.4c-0.03-0.76-0.18-0.27,0-0.67
			c0.12-1.18,0.21,0.18,0-1.19c-0.07,0.37-0.18,0.14-0.13,0.89c-0.44,0.06,0.18-0.65,0.13-0.52c0.15,0.91,0.16,0.39,0.02,0.3
			c-0.13-0.25-0.09-0.85-0.02-1.53c0.15-0.72-0.18-0.87,0-1.01c0.21,0.04-0.09-0.58,0-0.15c0.06-0.31-0.06,0.41,0-1.08
			c-0.01-0.74-0.04-0.73,0-0.85c-0.16-0.46-0.16,0.12,0-1.19c0.19-1.55-0.08-1.16,0-0.71c-0.06,0.06,0.08-0.83,0-0.78
			c0.43-1.22,0.16-0.88,0-0.83c0.04,0.36-0.14-0.71,0-0.16c-0.14,0.45,0.2,0.71-0.01,0.15c0.05-0.43-0.23-0.76-0.04-1.32
			c-0.35-0.2-0.23-0.81-0.15-0.84c0.01-0.37-0.24,0.6-0.25-0.55c-0.05,1.1-0.62-0.88-0.34-0.74c-0.08-0.85-0.38-1.22-0.43-1
			c-0.37-0.21-0.29-1.21-0.49,0.3c-0.17-0.99-0.54-0.66-0.55-0.61c-0.29-0.27-0.42-0.36-0.61,0.37c-0.32-1.11-0.19,0.61-0.49,0.2
			c-0.22,0.58-0.48-0.49-1.08-0.2c-0.97-0.49-0.68-0.13-1.08-0.11c0.2-1.24-0.37-0.23-0.36-0.48c0.14-0.12-0.04,0.2-0.14,0.6
			c-0.26-1.34-0.05,0.57,0,0.74c-0.17,0.28-0.07-0.55,0,0.04c0.02,1.24-0.4,0.85,0,0.84c-0.09,0.03-0.34-0.04,0,0.88
			c-0.25,0.33-0.22,1.58,0,0.29c0.09,0.17-0.04-0.16,0,1.2c0.13,0.96,0.02-0.28,0,0.91c0.01-0.11,0.26,0.72,0,1
			c-0.13,0.28-0.01,0.92,0,1.12c0.13,0.78-0.08,1.54,0.09,0.72c-0.02,0.35,0.21-0.28-0.09,0.15c0.39,1.03-0.32-0.41,0,0.99
			c0.14,0.17,0.09,0.95,0,0.97c-0.17,0.31,0.09,1.31,0,1.08c0.03,0.38,0.12,1.11,0,0.99c-0.44-0.08,0.31,0.01,0,0.76
			c-0.07,0.81-0.22,0.55,0,0.53c0.1,0.85,0.13,0.85,0,1.19c-0.03,0.47-0.25,1.07,0,0.57c0.14,0.83,0.17,0.75,0,0.68
			c0.15,0.72,0.01,0.77,0,1.17c-0.28-0.91-0.22-0.51,0,0.51c-0.25,0.68-0.08-0.05,0,0.79c0.09-0.23,0.16,2.06,0,1.18
			c-0.1,0.43-0.4,1.1,0,1.12c-0.07,0.34-0.06,0.68,0,0.8c-0.16-0.03-0.14-0.56,0,0.49c-0.38,1.38,0.08,0.16,0,1.51
			c-0.43,0.1-0.01,0.6,0-0.01c0.03-0.56,0.05,1.1,0,1.11c-0.1-0.72,0.11,1.46,0,0.81c-0.03,0.58-0.27,0.75,0,0.75
			c-0.09,0.9-0.17,1.97,0,1.08c0.06-0.04,0.2,1.21,0,1.18c0.02,1.08-0.13,1.02,0,1.09c-0.05-0.1,0,0.7,0,1.1c0,0.37,0,0.77,0,1.17
			c0-0.28,0,0.14,0,0.85c0-0.57,0,0.46,0,0.51c0,0.7,0,1.86,0,0.92c0,0.73,0,1.04,0,0.95c0,0.73,0-0.57,0,1.12c0,0.74,0,0.97,0,0.94
			c0,0.21,0,0.19,0,0.95c0,1.07,0,1.2,0,1.37c0,0.92,0,0.52,0,0.31c0-0.77,0,1.28,0,0.83c0,1.45,0-0.58,0,0.61c0,1.64,0,0.7,0,1.17
			c0-1.01,0-0.64,0,0.87C17.71,53.4,17.71,51.79,17.71,52.2z"/>
	</g>
	<g>
		<path class="st37" d="M0.32,59.2c0-1.25,0-0.3,0-0.9c0,0.12,0,0.29,0-1.31c0-0.65,0-0.69,0-1.2c0-0.61,0-0.91,0-1.33
			c0-0.24,0-0.48,0-0.72s0-0.47,0-0.69c0-0.82,0.1-0.77,0-1.11c-0.07-0.13,0.31-0.23,0-0.9c-0.05,0.46-0.02-0.43-0.06-0.76
			c0.01,0.08,0.03,0,0.06-0.16c-0.24,0.29,0.07,0.17,0-0.9c-0.11-0.43-0.01-0.69,0-0.84c-0.23,1.13-0.12-0.97,0-0.67
			c0.3-0.55,0.32,0.22,0-0.68c0.18-0.44-0.06-1.02,0-1.08c0.23-0.06,0.03-1.16-0.04-1.18c0.06-0.99,0.11-0.27,0.04,0.22
			c0.25-0.86,0.19,0.18,0-0.14C0.14,44.67-0.04,43.92,0.03,44c-0.08-0.11,0,0.34,0.29-0.28c-0.04-1.02,0.11-1.47,0.05-1.26
			c-0.1-0.21-0.08-0.03-0.05,0.34c-0.14,0.68-0.09,0.48,0.03,0.67c0-0.07-0.02,0.92-0.03-0.92c-0.12-0.67-0.03,0.97,0-0.86
			c0.1-1.52-0.2,0.16,0-0.54c-0.16-0.87-0.16,0.23,0-0.71c0.03,0.48-0.1-1.02,0-0.34c0.04-0.36-0.07-0.78,0-1.18
			c-0.15-1.15-0.06-0.94-0.13-0.34c0.25,0.44-0.01,0.49,0.13-0.04c0.14-0.24,0.09-0.94,0-0.83c0.34-0.06,0.2-0.02,0,0.69
			c-0.18,0.41-0.39-1.24,0-0.79c-0.42,0.45-0.43-0.74,0-0.3c0.23,0.24,0.09-1.55,0-0.83c0.15,0.08,0.07-0.47,0-0.88
			c-0.01-0.55,0.04-1.04-0.06-0.9c0.12-0.29,0.13,0.44,0.06,0.55c-0.02-0.22,0.01-0.67-0.09-1.23c-0.09-0.36-0.12,0.51,0.09,0.01
			c-0.13,0.93,0.16,0.24,0-0.49c0.05-1.02-0.1-1.05,0-0.76c0.01-0.49,0.22-0.38,0-0.14c-0.13-0.49,0.14-0.9,0-0.14
			c-0.16-0.45-0.19,0.62,0-0.36c0.09-0.38,0.01-0.82-0.01-0.92c-0.14-0.09-0.08-0.25,0.01-0.04c0.04-0.19,0.07-1.23,0-0.87
			c-0.19-1.08,0.39,0.52,0-0.57c0.06-0.8,0.18,0.2,0-0.37c-0.19,0.79-0.13,0.25,0,0.86c-0.23-0.13-0.27,0.03,0-0.26
			c-0.29,0.33-0.13,0.68,0-0.18c-0.06,0.15,0.06,0.38-0.05,0.34c0.01,0.07,0.05-0.21,0.05-1.09c0.11-0.81-0.24-0.11,0-0.21
			c-0.03-1.43,0.25-0.05,0-0.92c0.25-0.52,0.12-0.53,0-0.07c-0.12,0.38-0.2-0.68,0-0.72c-0.19-0.37,0.05-0.27,0,0.41
			c-0.08,0.03-0.1,0.23,0.03-0.54c-0.05-0.25,0.05-0.45-0.03,0.2c0.4-0.26-0.06-0.01,0-0.94c0,0.48,0.06,0.35,0.04,0.34
			c-0.02-0.23-0.06-0.42-0.04-0.93c-0.1-0.01,0.21-0.51,0-0.91c0.15,0.25-0.22-0.46,0,0.24c0.06,0.86,0.04,0.74,0,0.86
			c-0.02,0-0.18-0.27,0-0.47c0.1,1.06-0.15-0.49,0-0.65c0.14-0.82-0.01-1.17,0-0.93c0.01-0.05,0.03-1.02,0-0.58
			c0.1-1.33,0.14-1.15,0.08-1.04c-0.06,0.21-0.12,0.58-0.08,0.29c0.01-0.33-0.15-0.45,0-0.98c-0.2-0.84,0.13,0.15,0-0.12
			c-0.18-0.43-0.28,0.34,0-1.15c0.21,0.08-0.29,0.63,0,0.07c0.36-0.07,0.11,0.04,0-0.27c0.29-0.04-0.22-0.44,0-1.06
			c-0.31-0.81,0.04,0.69,0-0.38c0.05-0.77-0.08-0.62,0.07-0.45C0.33,17.7,0.35,18.4,0.32,17.6c0.29,0.21,0.51-0.32,0.1-1.09
			c-0.48,0.17,0.06,1.03-0.1,0.34c-0.13-1.01-0.19-1.4-0.15-0.35c-0.06,0.84-0.08,0.5,0.15-0.13c-0.13,0.42,0.07,1.74,0,1.07
			c0,0.88-0.21-0.07,0-0.06c-0.05,0.1,0.05,0.59,0.07-0.77c-0.06-0.02-0.12,0.04-0.07-0.01c-0.3,0.78-0.44,0.17,0-0.46
			c-0.03-1.63-0.24-0.07,0-0.78c-0.18-0.26,0.15,0.5,0.02,0.35c0.41,1.62-0.05,1.52-0.02,0.9c0.12,0.01,0.18,1.73,0,0.43
			c-0.2-0.56,0.4-0.36,0-1.22c-0.17,0.2-0.13-0.39,0-0.44c0.05-1.07,0.03-0.52,0-1.07c0.07-0.53,0.19-0.66,0-0.94
			c0.52-0.77,0.35,0.32,0-0.27c-0.13-0.96-0.17-1.26,0-0.65c-0.14,0.38,0.27-0.54,0,0.65c0.37,0.12-0.02-0.84,0-0.85
			c0.11-0.46-0.31,0.13,0-0.32c0.11-1.23,0.19-0.16,0-0.89c0.19,0.57-0.23,1.48,0-0.48c-0.43,1.28,0.05-1.97,0,0.12
			c-0.06,1.17-0.05-0.69,0,0.35c0.06,0.39,0.23-1.67,0-0.86c0.1-0.22-0.28-1.61,0-0.71c0.03-0.18-0.33-0.89,0,0.54
			c0.08,0.8,0.22,0.43,0,0.63c-0.03,0.51-0.14-0.62,0-0.7c0.26-0.56-0.26-0.92,0-0.83c0.09-0.57-0.33,0.74,0-1.06
			c-0.1,0.16,0.08-1.54,0-0.57c0.03-0.41,0.07-0.32,0-0.68c-0.09-0.34-0.04-1.06,0-1.04c0.01-0.57,0.11-0.53,0-0.95
			c0.06-0.36-0.03-0.65,0-0.86c0-0.62,0-0.46,0-0.75c0,0.27,0-0.21,0-0.31c0-0.19,0-0.72,0-0.91c0-0.38,0-0.54,0-1.02
			c0-1.4,0.44-0.07,1.2,0C1.9,0.1,2.36,1.24,2.88,0.9C3.4,0.61,3.99,0.72,4.62,0.96c0.42,0.71,0.86,0.36,1.32-0.13
			C6.4,1,6.88,0.96,7.36,0.91c0.49,0.47,0.99,0.25,1.49,0.05C9.23,1.26,9.62-0.35,10,0.8c0.39,1.34,0.77-0.46,1.16,0
			c0.39,0.54,0.77,0.52,1.16,0.34c0.39-0.06,0.77,0.4,1.15-0.18c0.38-0.22,0.75,0.1,1.12,0.22c0.37,0.27,0.73,0.31,1.09-0.08
			c0.36-0.32,0.7-0.42,1.04,0.34c0.34,0.13,0.67-1.05,0.98-0.48c0.32-0.15,0.62-0.3,0.91-0.79c0.29,0.06,0.57,0.43,0.83,0.81
			c0.26-0.18,0.51,0.53,0.73-0.01c0.23-0.72,0.44-1.17,0.63,0c0.38-0.53,0.68-0.3,0.88-0.16C21.89,0.53,22-0.4,22,0.96
			c0.12,0.86,0.23-0.28,0.35-0.46c0.12-0.07,0.23,1.58,0.35,0.79c0.11,0.2,0.23,0.89,0.34,0.42c0.11-0.84,0.22-0.02,0.33-0.59
			c0.22-0.1,0.44-0.43,0.65-0.1c0.21-0.67,0.42-0.59,0.63,0.08c0.21-1.71,0.41-0.75,0.61,0.05c0.2-0.67,0.4-0.05,0.59,0.14
			c0.19,0.8,0.38-1.17,0.57-0.17c0.19-0.23,0.37-0.88,0.55,0.39c0.18,0.91,0.35,0.92,0.53,0.4c0.17,0,0.34,0.72,0.5,0.1
			c0.16-1.17,0.33,0.61,0.48,0.46c0.16,0.65,0.31-0.21,0.46-0.27c0.23,0.16,0.44,1.33,0.66,0.37c0.21-0.6,0.42-0.47,0.61,0.19
			c0.2,0.65,0.39-0.54,0.57,0.48c0.18,1.17,0.36,0.29,0.53,0.46c0.17,0.74,0.33-0.05,0.48,0.48c0.15,0.09,0.3-0.41,0.44,0.51
			c0.14,0.36,0.27,0.85,0.4,0.46c0.13,0.95,0.24-0.49,0.35,0.6c0.15-0.56,0.24,0.97,0.41,0.85c0.08,0.58,0.27,1.4,0.33,0.8
			c0.05,0.02,0.17,0.33,0.14,0.73c0.05,0.33,0,0.36,0.12,0.15c0.08,1.02,0.15,0.74,0.18,0.98c0.07,0.37,0.03,0.17,0.11,1.03
			c0.14-0.48,0.07,0.35,0.04,1.03c0.09-0.75-0.07,1.46,0,0.99c0.07,0.69-0.14,0.56,0,1.1c0.14,0.14,0.25,0.24,0,0.95
			c0.18,0.7-0.28,0.82,0,0.23c0-0.54,0.23,1.58,0,0.42c0.23,1.52-0.13,1.12,0,0.99c-0.01-1.14-0.03-0.05,0-0.74
			c-0.16,0.19-0.18,0.71,0,0.73c0.09-0.13,0.11,1.55,0,1.22c0.1,0.37,0.03-0.04,0,0.75c-0.02-0.37-0.09,1.26,0,1.03
			c0.06,1.28,0.06,0.57,0,0.95c0.02,1.19-0.08,0.26,0,1.18c0.05-0.6,0.17,0.15,0,0.41c-0.08-0.82-0.24,0.59,0,0.9
			c-0.06,0.17-0.03,1.82,0,0.82c-0.24,0.67-0.37,0.19,0,0.56c0.15,0.1-0.04-0.47,0,0.52c0.2,0.88,0.41,2.91,0,0.79
			c0.3,0.03-0.04,0.59,0,0.78c0.28,1.31-0.28-0.28,0,0.55c0.28,0.36,0.02,0.07,0,0.45c-0.03,0.08-0.12-0.88,0,0.89
			c0.23-0.34,0.3,0.84,0,0.87c0.26-0.73-0.07,0.13,0,0.4c0.01,0.72-0.12,1.19,0,1.18c0.23-0.48,0.21,0.04,0,0.26
			c-0.04,0.95,0.03,0.6,0,1.21c0.21,0.15-0.07,0.24,0,0.06c0.01,0.62,0.16,0.68,0.12,1.45c-0.06,0.29-0.13,0.3-0.12-0.36
			c-0.07,0.42-0.55-0.07,0,0.53c0,0.34-0.21,1.35,0,0.92c-0.04,0.99,0,0.38,0,0.5c-0.06-0.42,0.74,0.57,0,0.81
			c0.27,0.1-0.32,0.07,0,0.37c-0.38,0.34,0.1-0.92,0,0.93c-0.2,0.73-0.23,0.12,0,0.55c0.15,1.19-0.01,0.23,0,0.71
			c-0.13,1.48-0.14,0.7,0,0.95c0.55-0.57,0.1-0.03,0,1.01c0.11-0.16-0.06,0.87,0,1.08c0.02,0,0,0.51,0,1.04
			c-0.05,0.12,0.12,0.97,0,0.85c0.34-0.87,0.05,0.24,0,0.45c0.17-0.3,0.21,1.33,0,1.05c-0.09,0.95,0.07,1.15,0,1.2
			c0.14,0.46,0.15,1.32,0,0.99c-0.06-0.14-0.24-0.51-0.01,0.51c-0.17-0.41-0.09,0.71-0.04,1.01c0.09,0.31,0.09,0.42-0.06,0.7
			c-0.04,1.12,0.04,0.45-0.08,0.71c-0.19,0.25-0.32,1.11-0.24,1.36c0.02,0.28-0.13,1.41-0.34,1.12c-0.23,0.16-0.49,1.56-0.43,1.07
			c-0.26-0.29-0.3,0.3-0.53,0.96c-0.51,0.93-0.65,0.44-0.62,0.91c-0.27,1.05-0.56,1.21-0.7,0.72c-0.41,0.76-0.46,0.56-0.78,0.77
			c-0.07-0.52-0.14,0.88-0.42,0.82c-0.27-0.02-0.35,0.71-0.44-0.3c-0.41-0.02-0.59-0.13-0.94,0.6c-0.25,0.17-0.41,0.1-1.03,0.33
			c-0.24-0.55-0.52,0.87-0.54,0.16c-0.06,0.7-0.36,0.67-0.56,0.32c-0.22-0.41-0.44,0.05-0.58,0.55c-0.24,0.41-0.56-0.15-0.59-0.39
			c-0.11,1.61-0.23,0.45-0.61,0.47c-0.12,0.02-0.51-0.19-0.63-0.26c-0.12-0.8-0.44-0.99-0.64-0.77c-0.18-0.22-0.53,0.66-0.66,0.93
			c-0.15-0.22-0.44,0.27-0.68-0.29c-0.26-0.26-0.41-0.16-0.7,0.1c-0.23-0.81-0.51-0.76-0.71-0.24c-0.24,0.04-0.48,0.61-0.73,0.55
			c0,0.15-0.14,0.06-0.39,0.16c-0.25-0.21-0.62,0.35-1.07-0.16c-0.23,0.43-0.48,0.61-0.75,0.63c-0.27,0.01-0.56-0.14-0.87-0.36
			c-0.31-0.43-0.63-0.32-0.97-0.15c-0.34-0.17-0.69,0.08-1.06-0.12c-0.24-0.17-0.49-0.27-0.74,0.05c-0.25,0.33-0.51,0.16-0.77-0.29
			c-0.26,0.08-0.52,0.09-0.79,0.26c-0.27,0.09-0.53,0.08-0.81-0.03c-0.27-0.16-0.54-0.61-0.82-1c-0.27-0.16-0.55-0.19-0.82,1.01
			c-0.27,0.23-0.55,0.44-0.82,0.48s-0.54-0.11-0.82-0.61c-0.54-0.6-1.07-0.5-1.6-0.05c-0.52-1.04-1.03-0.18-1.51,0.18
			c-0.73-0.67-1.41-0.03-2.03-0.19c-0.62,0.77-1.16,0.05-1.62,0.19c-0.46,0.72-0.82,1.77-1.07,0.34C0.46,60.3,0.32,60.53,0.32,59.2z
			 M14.61,52.2c0,0.54,0.79-0.36,1.58,0c0.79,0.73,1.58-0.13,1.58,0c0.43-0.28,0.81,0.11,1.16-0.22c0.34,0.54,0.65-0.88,0.91-0.66
			c0.13-0.49,0.25-0.21,0.34-0.54c0.1,0.66,0.18-0.2,0.25-0.72c0.07,0.17,0.11-0.59,0.15-0.87c0.03,0.39,0.05-1.42,0.05-1.13
			c0,0.03,0-0.87,0-0.69c0-0.96,0-0.79,0-0.82c0-0.22,0,0.49,0-1.1c0-0.88,0,0.2,0-1.21c0,0.09,0-0.06,0-0.84c0-0.43,0-0.6,0-0.85
			c0,0.01,0-0.19,0-0.7c0,0.01,0-0.47,0-0.9c0-0.27,0-0.73,0-0.96c0-0.41,0-0.38,0-1.07c0.05-0.99-0.02-1.05,0-1.11
			c0.09-0.71-0.04-1.57,0-0.94c0.15,0.5-0.2-1.13,0-0.83c-0.25,0.24,0-1.13,0-0.29c0.17-0.44,0.24-0.75,0-0.97
			c0.02-1.5-0.08-1.38,0-0.84c0.03,0.15-0.04-0.33,0,0.13c0.06-0.36,0.08-0.31,0-1.27c-0.2-1.8,0.12-0.73,0-0.93
			c0.2-1.01,0.01-1.14,0-0.37c0.01,1.15,0.04,0.22,0-1.09c0.08-0.48-0.09-0.17,0-0.37c-0.04,1.39,0.04-0.57,0-0.91
			c0.08-0.66,0.08,1.64,0,0.1c-0.33-0.99,0.02-1.63,0-1.46c-0.33,0.09,0.09-0.93,0-1.03c0.33-0.67-0.14-1.42,0-0.06
			c-0.22-1.38-0.12-0.74,0-1.33c-0.06-0.83,0-0.25,0-0.17c-0.13,0.38,0.07-0.19,0-0.06c-0.01-0.3-0.02-0.49-0.02-0.67
			s0-0.36,0.02-0.63c-0.09,0.14-0.08-1.64,0-0.59c-0.1-0.02,0.11-0.7,0.06-0.91c-0.16-0.38,0.07,0.06-0.06,0.08
			c0.06,0.17-0.14,0.05,0-0.89c0.08,0.97,0.1-1.05,0-1.12c0.25-0.15,0.12,0.28,0.08,0.45c-0.08,0.12,0.08-0.24-0.08-1.33
			c0.07-0.8-0.23,0.67,0-1.08c0.16-1.68,0.11,0.23,0-0.85c0.1-0.29-0.29-0.87,0-1.14c0.17,0.28,0.15-0.17,0-0.29
			c0.44-0.33-0.28-2.15,0-1.23c-0.13-1.08,0.33-1.23,0-1.21c0.17,0.34,0.19,0,0,0.04c0.2-0.51,0.14,0.45,0-0.99
			c-0.06-0.5-0.1-0.95,0-1.28c-0.06-0.69,0.01-0.18-0.01,0.2c-0.15-0.65-0.32-0.53-0.04-0.02c-0.19,0.95-0.06-0.77-0.15-0.91
			c-0.66-0.33-0.08,1.07-0.25-0.33c-0.41,0.42-0.39-0.93-0.34-0.96c-0.08-0.04-0.42,0.37-0.43-0.51c-0.29-0.79-0.29-0.68-0.24-0.66
			c-0.11,0.71-0.12-0.38-0.25,0.47c-0.34,0.14-0.1-0.87-0.55-0.39C18.24,8,18.03,8.44,17.76,8.55c-0.18,0.09,0.12-1.38-0.49-0.25
			c-0.18-0.45-0.72-0.24-1.08,0.25c-0.24-0.31-0.83,0.49-1.08,0.05c-0.34-0.79-0.39-0.2-0.49-0.05c-0.23,0.22-0.21-1.08,0,0.74
			c-0.08,0.21-0.09,0.19,0,1.07c0.19,0.56-0.44,0.55,0,0.98c0.47-0.59,0.02-1.01,0,1.48c-0.16,0.86,0-0.28,0-0.43
			c-0.38-0.05,0.27-0.05,0,0.84c-0.07,0.22,0.09-0.5,0-0.61c0.12,0.86-0.1-0.56,0,0.83c0.2,1.81-0.21,1.66,0,1
			c-0.25,0.54,0,1.5,0,0.91c0.05,0.99-0.39,0.7,0,0.18c0.21,0.23,0.09-0.71,0,0.86c-0.32-1.67,0,1.18,0,0.94
			c-0.18,0.22,0.09,0.67,0,1.07c-0.06-0.34,0.17,1.08,0,1.24c0.28,0.57,0.39,1.53,0,1.06c0.02,0.03-0.29,1.04,0,0.91
			c0.21-0.4-0.34,0.6,0,0.49c0.41,0.42,0.15-0.07,0,0.85c0.22,0.74,0.33-0.45,0,0.46c0.1,0.61,0.03,1.28,0,0.72
			c-0.04,0.88-0.09,0.94,0,1.25c0.13,0.75,0.04,0.14,0,0.9c-0.2,0.15,0.14-0.01,0,0.57c0.03,0.39-0.12-0.07,0-0.16
			c-0.01-0.08,0.2-1.33,0,0.29c0.12-0.73-0.12,0.79,0,0.89c0.1-0.34-0.04-0.4,0,0.63c0.03,0.76-0.02,0.27,0,0.85
			c-0.2,0.49-0.24,0.35,0,1.13c-0.12,0.16-0.15,1.29,0,1.16c0.21-0.07-0.12-0.38,0,0.27c-0.16,0.92,0.16,1.74,0,0.98
			c-0.2,0.87-0.01,0.52,0,0.96c0.21,0.1,0.13,0.83,0,1.18c0.05,0.39,0.17,0.42,0,0.35c-0.06-0.65,0.05,0.85,0,0.85
			c0.07,0.35-0.1,0.49,0,0.44c0.08,0.57,0.05,1.27,0,1.14c0,0.3,0,0.45,0,0.82c0,0.36,0,0.53,0,0.49c0,0.25,0,0.62,0,1.1
			c0,1.09,0,0.72,0,0.87c0,0.09,0,0.18,0,0.49c0,0,0,1.06,0,0.78c0,0.72,0,0.83,0,1c0,0.37,0,0.39,0,1.06c0,0.47,0,0.44,0,0.62
			c0,0.38,0,0.55,0,0.64c0,0.34,0,1.1,0,0.62c0,1.42,0,1.81,0,1.1c0-1.27,0,1.48,0,0.58c0,0.64,0,1.33,0,0.72c0,0.75,0-0.25,0,0.72
			c0-0.31,0,1.93,0,1.17c0-1.49,0,1.03,0,0.87C14.61,50.84,14.61,52.33,14.61,52.2z"/>
	</g>
	<path class="st38" d="M1.98,59.2c0-0.53,0-1.41,0-1.02c0-0.57,0-0.1,0-1.26c0-0.67,0-0.82,0-1.57c0-0.05,0-1.19,0-1.47
		c0-0.24,0-0.48,0-0.72s0-0.47,0-0.71c0.03,0.24,0.07-0.91,0-0.71c-0.08,0.25,0.14-0.77,0-0.71c-0.24,0.2-0.07-0.2,0-1.06
		c0.03-0.76-0.15-0.56,0-0.86c0.1-0.98-0.15-0.36,0.08-0.93c0.08-0.17-0.03-0.14-0.08-0.21c0.2-0.66,0.07-0.63,0.05-1.2
		c0.14-0.03,0.13-0.21-0.05,0.26c-0.11,0.04-0.07-0.59,0,0.08c-0.13,0.34,0.12,0.36,0.13,0.14c0.1-0.11,0.03-0.52-0.13-1.34
		c-0.34-0.61,0,0.34,0-0.03c0.15,0.16,0.26-0.84,0-1.11c0.17,0.15-0.15-0.19,0-0.71c-0.04,0.71-0.31,0.01-0.15,0.1
		c-0.21-0.55-0.07-0.23,0.15-0.68c-0.04,1.71,0.45-0.75,0,0.15c-0.59-0.7,0.05-0.12,0-1.09c0.47,1.48-0.06-0.63,0-0.2
		c-0.11-0.24,0.11-0.42,0-1.03c0.04-0.44-0.06-0.62-0.01-1.16c0,0.15-0.08-0.38,0.01,0.03c-0.02-0.29-0.03-0.98,0-0.94
		c-0.02-1.1,0.12-1.23-0.06-0.95c-0.17,0.29-0.13,0.58,0.06,1.11c-0.02-1.72-0.01,0.33,0-0.49c0.25-0.44-0.19,0.43,0,0.09
		C2,39.47,2.01,38.76,2,39.22c-0.02-0.33-0.17-0.85-0.02-0.78c0.11-1.4,0.06-0.29,0-0.74c0.11,0.01,0.15,0.7,0.03,0.11
		c0.01-0.02-0.21-0.61-0.03-1.32c0.13-0.3-0.05-1.15,0-1.2c-0.04-1.32-0.14,1.13,0-0.87c0.09,1.33,0.1-0.43,0-0.46
		c-0.14-0.01,0.06-1.56,0-0.43c0.08-0.93,0.19-0.64,0-0.89c-0.07-0.73-0.05-0.82-0.03-0.69c0.12,0.07-0.03,0.34,0.03,0.69
		c-0.04-0.36-0.07-1.18,0-1.06c0.04,0.72-0.06-1.06,0-0.61c-0.1-0.38-0.08-0.07,0-0.77c0.14,0.41-0.3,0.63,0,0.48
		c0.14,0.19,0.2-0.1,0.14-0.09c0-0.14-0.02-0.5-0.14-1.04c0.39,0.32-0.08-0.33,0-0.71c0.19-0.51,0.16,0.92,0-0.65
		c0.06-0.62,0.23-0.88,0-0.93c0.2,0.08-0.11-0.55,0,0.24c-0.29-0.15,0.15-0.28,0-0.65c-0.06,0.53,0.13-1.15,0-0.63
		c-0.26-1.35,0-0.76,0-0.89c-0.01-0.08,0.09,0.72,0.04,0.44c-0.01,0.01-0.04-0.3-0.04-0.82c-0.11,0.17-0.12-1.17,0-0.51
		c0.06-0.62-0.05,0.98,0-0.8c-0.18-0.03-0.07-0.87,0-0.98c-0.18-0.68-0.1,1.03,0-0.23c0.03-0.97,0.04-0.7,0.05-0.86
		c0-0.1-0.13-0.05-0.05-0.31c0.12-0.81-0.14-0.9,0-0.21c-0.14-0.17-0.07-0.62,0-1.1c-0.21-0.14,0.06-0.92,0-0.81
		c-0.17-0.47,0.09-0.14,0-0.24c-0.13-0.34,0.17-0.86,0-1.07c0.11,1.62,0.37-1.28,0-0.24c-0.09-0.79,0.07,0.44,0-1.18
		c-0.08-2.08,0.18,0.23-0.12-0.7c-0.17-0.39-0.49,0.72,0.12,0.65c-0.16-0.83,0.27-0.82-0.08-1.15c-0.17-0.62,0.17,0.38,0.08,0.05
		c0.11-0.24,0.28,0.94,0.07-0.04c-0.09-0.58-0.29-0.12-0.07-1.13c-0.18-0.11,0.04-0.26,0-0.98c-0.06-0.55-0.07-1.02,0-1.15
		c0.03,0.23,0.12-0.09,0-0.15c0.3-0.3-0.11-0.34,0-0.96c-0.32,0.89,0.08,1.03,0,0.19c-0.03-0.03,0.07,0.48,0-0.89
		c-0.02-0.32,0.12,0,0-0.14c0.14,1.18,0.11,0.03,0,0.18c-0.01-0.07-0.38,0.03,0-0.11c-0.15,0.66-0.22-1.43,0-0.98
		c-0.07-0.8,0.19-1.15,0-0.91c0.1,1.04-0.01-0.14,0-0.38c0-0.53-0.07,0.21,0-1.03c0.06-1.64,0.02,0.17,0-1.06
		c-0.14,0.5-0.09-0.4,0-0.93c0.01,0.19,0,0.55,0-0.36c-0.04-0.23,0-0.71,0-1.17c0,0,0-1.1,0-1.28c0-0.19,0-0.17,0-0.02
		c0-1.65,0-1.79,0-1.02c0,0.56,0.44,0.33,1.2,0c0.38-1.55,0.84-0.95,1.36-0.1C5.06,1.6,5.65-0.4,6.28,0.96
		C6.7,0.85,7.15,0.88,7.6,1.06c0.46,0.05,0.93,0.26,1.42,0.07c0.49,0.39,0.99,0.31,1.49-0.17c0.51,0.35,1.02,0.6,1.53-0.11
		c0.52-0.11,1.03,0.07,1.55,0.04c0.52,0.36,1.03,0.05,1.53,0.07c0.51,0.23,1-0.4,1.49-0.04c0.49,0.14,0.96-0.01,1.42-0.01
		c0.23,0.26,0.45,0.4,0.68,0.4c0.22,0.35,0.44,0.32,0.65-0.35c0.32,0,0.62,0.18,0.91,0.37c0.29,0.3,0.57-0.08,0.83-0.29
		c0.26,0.97,0.51,0.53,0.73,0.12c0.23-0.64,0.44-0.05,0.63-0.2c0.38-1.06,0.68-0.27,0.88,0.06c0.21-0.89,0.32-0.02,0.32-0.06
		c0.24-0.14,0.47-0.26,0.7-0.3c0.23,0.17,0.45,0.77,0.67,0.26c0.22,0.55,0.44-0.7,0.65-0.19c0.21,0.92,0.42,0.42,0.63,0.38
		c0.41,0.48,0.81,0.61,1.2,0.21c0.39-0.62,0.76,0.33,1.12,0.2c0.36,0.71,0.7,0.68,1.03,0.27c0.33,0.11,0.65-0.37,0.95,0.42
		c0.45-0.05,0.87-0.64,1.27,0.72c0.39,0.51,0.76,0.15,1.1,0.78c0.17,0.57,0.33,0.07,0.48,0.47c0.15,0.73,0.3,0.49,0.44,0.5
		c0.14,0.84,0.27,0.16,0.4,0.53c0.13,0.57,0.24,0.92,0.35,0.54c0.15-0.66,0.28-0.24,0.41,0.43c0.07,1.21,0.14,0.15,0.18,0.47
		c0.01,0.25,0.08-0.08,0.16,0.75c0.07,1.06,0.14,1.09,0.26,0.9c0.17,0.69,0.04,0.25,0.18,0.95c0.14,0.99,0.11,0.44,0.11,1.13
		c0.09,0.28-0.09,0.69,0.04,0.93c0.11,0.28,0.11,0.08,0,0.99c0.08,0.13-0.09,0.06,0,1.05c0.31,0.07-0.11,1.4,0,0.9
		c0.08-0.27-0.23,0.02,0,0c-0.21-1.17-0.04,0,0-0.14c0.03,1.57,0.14,1.25,0,0.89c-0.01,0.77,0.08,0.96,0,1.1
		c0.17,0.11-0.04,0.86,0,1.05c0.11,0.98-0.09,1.55,0,1.19c0.15,0.17-0.23,0.38,0,0.63c-0.12,0.48-0.01,0.6,0,0.68
		c0.1,0.49-0.12,0.15,0,0.61c-0.29-0.01,0.08,1.18,0,0.53c-0.05,0.31-0.12-0.04,0,0.74c-0.09,0.34,0.14,0.34,0,1.22
		c-0.1,0.27-0.35,0.36,0.01,0.99c-0.11,0.52,0.16-0.41-0.01,0.06c-0.16,0.66-0.12,0.74,0,1.25c-0.17,0.81-0.23,0.31,0,0.58
		c0.26,0,0.02-0.2,0,0.75c0.26,0.26-0.08,0.66,0,0.79c-0.1,0.27,0.14,1.6,0,0.65c-0.11,1.67-0.1,0.98,0,1.22
		c-0.15,1.29,0,0.83,0,0.66c-0.06-0.61,0.05,0.43,0,0.67c0.23-0.45-0.11,0.37,0,0.46c0.41,0.68,0.04,0.78,0,0.86
		c0.05-0.45-0.07,1.11,0,1.06c-0.21-0.94,0.08,0.44,0,0.41c-0.02,1.14-0.09,1,0,1.12c0.12,0.08,0.09,0.74,0.18,0.91
		c-0.12,0.2-0.34,1.14-0.18,0.33c-0.28,1.13-0.24,1.15-0.13,1.68c-0.06-0.24-0.02,0.08,0.13-0.62c-0.24,0.16-0.09,0.69,0,1.07
		c0.03-0.43-0.05-0.79,0,0.6c-0.22,0.55-0.13,1.83,0,0.85c0.05,1.3,0.23,0.31,0,0.92c-0.02-0.08,0.04,0.53,0,0.62
		c-0.15,1.17,0.07,0.51,0,0.62c-0.05,0.41-0.01,0.02,0,0.91c-0.04,1.05,0.15,1.09,0,0.9c-0.08,0.35-0.01,1.46,0,1.36
		c0.02,1-0.02,0.63,0,0.32c-0.03,0.46,0.12,0.64,0,1.01c-0.11,0.05,0.02,1.18,0,0.99c-0.21-0.32,0.01,0.31-0.01,0.88
		c0.25,0.81,0.02-0.17-0.04,0.64c0.2,0.09,0.21,0.22-0.06,0.8c0.06-0.22-0.32,0-0.08,0.61c0.03-0.27-0.49,0.82-0.24,1.09
		c-0.1,0.8,0.04,1.14-0.16,0.74c0.14-0.2-0.19,0.39-0.18,0.65c-0.03,0.61-0.3-0.38-0.43,1.07c-0.22,0.76-0.5,0.54-0.53,0.96
		c-0.38-0.32-0.52,0.24-0.62,0.87c-0.6,0.73-0.5,0.17-0.7,0.76c-0.08-0.23-0.54,1.8-0.78,0.65c-0.16,0.82-0.56-0.49-0.86,0.63
		c-0.36-0.32-0.49-0.23-0.94,0.65c-0.45,0.33-0.13,0.39-0.5,0.01c-0.46-0.47-0.44-0.36-0.52,0.27c0.11-1.11-0.36-0.42-0.54-0.64
		c-0.18,1.62-0.3-0.19-0.56,0.84c-0.19-1.42-0.43-0.78-0.58,0.06c-0.15,0.89-0.36,1.01-0.59,0.37c-0.18,0.04-0.36,0.03-0.61,0.29
		c-0.29,1.23-0.39,0.13-0.63-0.06c-0.13,0.4-0.32,0.21-0.64,0.43c-0.23-0.05-0.37,0.2-0.66-0.28c-0.43-0.4-0.37,0.32-0.68,0.48
		c-0.25,0.03-0.54,0.6-0.7-0.24c-0.3-0.08-0.59,0.28-0.71,0.45c-0.26,0.16-0.48,0.27-0.73-0.56c0.01,0.6-0.06,0.06-0.39,0.27
		c-0.09,0.02-0.32-0.57-0.46-0.65c-0.18-0.1-0.38-0.24-0.61,0.39c-0.15,0.18-0.31-0.12-0.49-0.35c-0.17-0.23-0.35-0.28-0.54,0.02
		c-0.19,0.29-0.39,0.36-0.59-0.02c-0.21-0.41-0.42-0.89-0.64-0.06c-0.22,0.2-0.45-0.01-0.68-0.03c-0.23-0.09-0.47,0.24-0.71,0.44
		c-0.24-0.17-0.49,0.06-0.74,0.35c-0.25,0.18-0.51,0.23-0.77-0.43c-0.26,0.19-0.52,0.5-0.79,0.16c-0.27,0.19-0.53,0.31-0.81-0.22
		c-0.27-0.26-0.54,0.13-0.82,0.29c-0.27,0.12-0.55,0.16-0.82-0.15c-0.27-0.51-0.55-0.04-0.82,0.21s-0.54,0.48-0.82,0.12
		c-0.54,1.35-1.07,1.01-1.6-0.09c-0.52-0.67-1.03-1.09-1.51-0.24c-0.73-0.02-1.41-0.32-2.03,0.11c-0.62-0.38-1.16-1.57-1.62-0.11
		c-0.46,0.03-0.82-0.06-1.07-0.48C2.12,58.2,1.98,58.37,1.98,59.2z M16.27,52.2c0,0.72,0.2-0.85,0.49,0.13
		c0.3,0.61,0.69-1.12,1.08-0.13c0.39-0.21,0.79-0.14,1.08,0.09c0.3,0.48,0.49,1.32,0.49-0.09c0.43,0.15,0.81-0.79,1.16-0.22
		c0.34-1.14,0.65-0.46,0.91-0.66c0.13-0.55,0.25,1.15,0.34-0.53c0.1,0.61,0.18-0.63,0.25-0.73c0.07,0.58,0.11-2.79,0.15-0.87
		c0.03,0.33,0.05-0.44,0.05-1.12c0-0.12,0-0.9,0-0.69c0-1.42,0-1,0-0.82c0,0.22,0,0.21,0-1.1c0,0.16,0,0.86,0-0.91
		c0-0.87,0-0.36,0-0.55c0,0.14,0-0.66,0-1.34c0,0.21,0-0.92,0-0.1c0-0.56,0-0.31,0-1.1c0-0.25,0-1.05,0-0.94c0-0.18,0-0.24,0-0.5
		c0-0.36,0-0.76,0-1.09c0-0.24,0-0.5,0-0.79c-0.03-0.19-0.04-0.41,0-1.01c0.3,0.11-0.2-0.28,0-0.91c0.16-0.6-0.09,0,0-0.52
		c0.05-0.13-0.04-0.36,0-0.89c-0.09-0.88,0.24-0.03,0-0.8c-0.2-1.2,0.19,0.08,0-0.64c0.1-0.28,0.04-1.23,0-0.62
		c-0.06,0.76,0.25-0.89,0-1.2c0.31,0.28-0.12-1.04,0-1.1c0.01-0.25-0.16,0,0-0.61c-0.22-0.57-0.06,0.28,0-0.69
		c0.19-0.23,0,0.14,0-0.22c-0.42,1.33,0.01,0,0-1.12c0-0.21-0.02-1.11,0-0.76c-0.04-0.17-0.18-0.57,0-0.55
		c0.04,0.41-0.2-0.05,0-0.71c0.18-1.6-0.21-0.32,0-0.56c-0.15,0.92-0.22-0.86,0-0.44c-0.15,0.65-0.08,0.44,0-0.91
		c0,0.2,0.03,0.2,0.05,0c0.11-0.47-0.07-0.54-0.05-1.19c0.22-0.19,0.19-0.81,0-0.83c0.47,0.18,0.15-0.93,0-0.55
		c0.02,0.14,0.08-1.42,0-0.89c0.14,0.54-0.17-0.51,0-0.75c-0.13-0.3,0.29,0.28,0-0.57c-0.06,0.08-0.03-0.65-0.05-0.86
		c0.04,0.04-0.18-0.14,0.05-0.09c-0.13,0.78,0.18-0.46,0-0.17c0.08,0.46,0.14-0.43,0-0.51c0.14-0.73-0.05-0.99,0-1
		c0.02,0.02-0.16,0.28,0-0.72c0.31-1.18,0.05-0.47,0-0.83c-0.04-0.98,0.21,1.26,0-1.13c-0.07,0.57-0.13-1.3,0-1.13
		c0.1-0.75-0.14,0.16,0,0.14c0.11-0.57,0.36-0.82,0,0c-0.1-0.02,0.01,0.35-0.05-1.18c-0.02-1.76-0.05-1.19-0.06-0.06
		c-0.14,1.1-0.24,0.93-0.09-0.76c-0.02-1.46,0.21,0.22-0.25-0.77c-0.32-0.29-0.33-1.21-0.34-0.53c-0.07,1.05-0.34-0.29-0.43-0.05
		c-0.22,1.26-0.23-0.29-0.49-0.65c0.1-0.69-0.32,0.39-0.55,0.14c-0.35,0.04-0.23,0.5-0.61-0.37c0.1,0.7,0.11-0.54-0.14-0.58
		c-0.1-0.36-0.05,1.03-0.36,0.61c-0.19-0.23-0.26,0.53-0.5,0.1c-0.41,0.64-0.08-1.3-0.58-0.13c-0.07-0.02-0.46,0.65-0.58,0.62
		c-0.05,0.6-0.46-0.25-0.5-0.35c-0.39,0.13-0.64-0.63-0.49-0.27c0.12-1.16-0.22,1.82,0,0.74c0.02-0.19,0.15-0.79,0,0.86
		c-0.29-1.22-0.21,0.64,0,0.98c-0.21-0.19,0.21,0.81,0,0.21c0.2,0.69,0.41,0.98,0,0.19c0.2,0.18,0.24-0.72,0,0.36
		c0.01,0.87-0.26-1.36,0,0.73c0.13,0.65,0.05-0.16,0,0.84c-0.01,0.85-0.38,0.21,0,1c0.39-1.78-0.01,0.29,0,0.39
		c-0.1,0.95-0.04,1.65,0,0.78c0.24,0.28-0.1-0.41,0,0.52c-0.03,0.77-0.09,0.55,0,0.92c0.19,0.82,0,0.42,0,0.2
		c0.33,1.23-0.05,0.65,0,1.14c0.05-0.24-0.05,0.48-0.18,0.73c-0.14,0.46-0.3,0.08,0.18,0.5c-0.05-0.39,0.25,0.4,0,1.07
		c-0.18,0.81,0.06,1.05,0.12,1.23c-0.12-0.1-0.13,1.37-0.12-0.28c0.32-0.3,0.41,1.6,0,1c0.17,0.36,0.09,0.61,0,0.3
		c0.05-0.41-0.09-1.01-0.08-0.65c0.2-0.18,0.11-0.51,0.08,0.87c0.08,1.14-0.13,0.66,0,0.81c0.17-0.53,0.05,0.14,0,0.45
		c-0.05,1.49,0.04,0.69,0,0.95c-0.02-0.39,0.3,1.06,0,1.17c-0.25,0.6-0.27,0.2,0,0.05c0,0.03-0.25,1.62,0,1.1
		c0,0.45-0.33,0.17,0,0.16c-0.09,0.55,0.05-0.09,0,1.01c0.08,0.46-0.1,0.89,0,1.22c0.19,0.92,0,0.63,0,0.24
		c-0.18-0.42-0.37,0.75,0,0.9c0.19-0.92,0.18-0.16,0,0.91c0.01-0.31,0.22,0.05,0,0.76c0.28-0.48-0.01-0.08,0-0.25
		c-0.27-0.33-0.12-0.14,0,1.2c0.16,0.48-0.04-0.14,0,0.47c0.13-0.07,0.08,1.25,0,1.07c0.02,0.06,0.01,0.01,0,0.58
		c0.02-0.41-0.08,0.34,0,0.73c-0.07,1.16-0.02,0.57,0,1.11c0,0.32,0,0.68,0,0.89c0,0.21,0,0.26,0-0.02c0,0.03,0,0.08,0,0.41
		c0,0.21,0,0.56,0,1.13c0-0.11,0,0.56,0,1.23c0-0.35,0,0.39,0,0.92c0,0.63,0,0.36,0,0.65c0,0.16,0,0.29,0,0.64c0-0.49,0-0.22,0,0.78
		c0-0.17,0,1.13,0,1.05c0-1.03,0,0.81,0,0.84c0,0.94,0,1.35,0,0.91c0,0.92,0,1.41,0,0.77c0,0.44,0,0.13,0,0.75c0-0.26,0,0.45,0,0.69
		c0,1.22,0,1.83,0,1.17c0,0.12,0,0.36,0,0.87C16.27,51.25,16.27,51.69,16.27,52.2z"/>
</g>
<g>
	<g>
		<path class="st37" d="M-62.67,171.27v-58.24h21.68c2.82,0,5.14,0.41,6.95,1.23c1.8,0.82,3.15,2,4.04,3.55
			c0.89,1.54,1.33,3.4,1.33,5.57v35.47c0,3.15-0.58,5.63-1.72,7.44c-1.15,1.81-2.79,3.09-4.93,3.84c-2.14,0.76-4.68,1.13-7.64,1.13
			H-62.67z M-48.38,164.28h3.15c0.85,0,1.54-0.3,2.07-0.89c0.53-0.59,0.79-1.68,0.79-3.25v-35.28c0-1.58-0.26-2.68-0.79-3.3
			c-0.53-0.62-1.22-0.94-2.07-0.94h-3.15V164.28z"/>
	</g>
</g>
<g>
	<g>
		<path class="st1" d="M-59.57,171.27v-58.24h21.68c2.82,0,5.14,0.41,6.95,1.23c1.8,0.82,3.15,2,4.04,3.55
			c0.89,1.54,1.33,3.4,1.33,5.57v35.47c0,3.15-0.58,5.63-1.72,7.44c-1.15,1.81-2.79,3.09-4.93,3.84c-2.14,0.76-4.68,1.13-7.64,1.13
			H-59.57z M-45.28,164.28h3.15c0.85,0,1.54-0.3,2.07-0.89c0.53-0.59,0.79-1.68,0.79-3.25v-35.28c0-1.58-0.26-2.68-0.79-3.3
			c-0.53-0.62-1.22-0.94-2.07-0.94h-3.15V164.28z"/>
	</g>
</g>
<g>
	<g>
		<path class="st38" d="M-61.01,171.27v-58.24h21.68c2.82,0,5.14,0.41,6.95,1.23c1.8,0.82,3.15,2,4.04,3.55
			c0.89,1.54,1.33,3.4,1.33,5.57v35.47c0,3.15-0.58,5.63-1.72,7.44c-1.15,1.81-2.79,3.09-4.93,3.84c-2.14,0.76-4.68,1.13-7.64,1.13
			H-61.01z M-46.72,164.28h3.15c0.85,0,1.54-0.3,2.07-0.89c0.53-0.59,0.79-1.68,0.79-3.25v-35.28c0-1.58-0.26-2.68-0.79-3.3
			c-0.53-0.62-1.22-0.94-2.07-0.94h-3.15V164.28z"/>
	</g>
</g>
</svg>
